HIERARCHY
ROOT joint_Root
{
	OFFSET 0.0 0.0 0.0
	CHANNELS 6 Xposition Yposition Zposition Zrotation Xrotation Yrotation 
	JOINT Hips
	{
		OFFSET 4.5925 91.4895 -427.239
		CHANNELS 6 Xposition Yposition Zposition Zrotation Xrotation Yrotation 
		JOINT Spine
		{
			OFFSET 15.7357 0.0 0.0
			CHANNELS 6 Xposition Yposition Zposition Zrotation Xrotation Yrotation 
			JOINT Chest
			{
				OFFSET 8.98455 -0.406207 0.0
				CHANNELS 6 Xposition Yposition Zposition Zrotation Xrotation Yrotation 
				JOINT Neck
				{
					OFFSET 16.3773 0.0 0.0
					CHANNELS 6 Xposition Yposition Zposition Zrotation Xrotation Yrotation 
					JOINT Head
					{
						OFFSET 6.45672 0.0 0.0
						CHANNELS 6 Xposition Yposition Zposition Zrotation Xrotation Yrotation 
						End Site
						{
							OFFSET 0.0 0.0 0.0
						}
					}
				}
				JOINT Shoulder_L
				{
					OFFSET 12.9942 -0.242716 4.98039
					CHANNELS 6 Xposition Yposition Zposition Zrotation Xrotation Yrotation 
					JOINT UpperArm_L
					{
						OFFSET 5.34809 0.0 0.0
						CHANNELS 6 Xposition Yposition Zposition Zrotation Xrotation Yrotation 
						JOINT LowerArm_L
						{
							OFFSET 24.3286 1.87007e-05 0.0
							CHANNELS 6 Xposition Yposition Zposition Zrotation Xrotation Yrotation 
							JOINT Hand_L
							{
								OFFSET 22.2916 0.0 0.0
								CHANNELS 6 Xposition Yposition Zposition Zrotation Xrotation Yrotation 
								End Site
								{
									OFFSET 0.0 0.0 0.0
								}
							}
						}
					}
				}
				JOINT Shoulder_R
				{
					OFFSET 12.9945 -0.242716 -4.98039
					CHANNELS 6 Xposition Yposition Zposition Zrotation Xrotation Yrotation 
					JOINT UpperArm_R
					{
						OFFSET -5.34813 0.0 0.0
						CHANNELS 6 Xposition Yposition Zposition Zrotation Xrotation Yrotation 
						JOINT LowerArm_R
						{
							OFFSET -24.3289 0.000322201 0.0
							CHANNELS 6 Xposition Yposition Zposition Zrotation Xrotation Yrotation 
							JOINT Hand_R
							{
								OFFSET -22.2915 -0.000108084 0.0
								CHANNELS 6 Xposition Yposition Zposition Zrotation Xrotation Yrotation 
								End Site
								{
									OFFSET 0.0 0.0 0.0
								}
							}
						}
					}
				}
			}
		}
		JOINT UpperLeg_L
		{
			OFFSET -2.19248 -6.46944 0.0
			CHANNELS 6 Xposition Yposition Zposition Zrotation Xrotation Yrotation 
			JOINT LowerLeg_L
			{
				OFFSET 39.0811 0.0 -1.23785e-05
				CHANNELS 6 Xposition Yposition Zposition Zrotation Xrotation Yrotation 
				JOINT Foot_L
				{
					OFFSET 40.9854 0.0 -1.26872e-05
					CHANNELS 6 Xposition Yposition Zposition Zrotation Xrotation Yrotation 
					JOINT Toes_L
					{
						OFFSET 11.7543 0.0 0.0
						CHANNELS 6 Xposition Yposition Zposition Zrotation Xrotation Yrotation 
						End Site
						{
							OFFSET 0.0 0.0 0.0
						}
					}
				}
			}
		}
		JOINT UpperLeg_R
		{
			OFFSET -2.19251 6.46944 0.0
			CHANNELS 6 Xposition Yposition Zposition Zrotation Xrotation Yrotation 
			JOINT LowerLeg_R
			{
				OFFSET -39.0811 -0.00228153 -0.0401928
				CHANNELS 6 Xposition Yposition Zposition Zrotation Xrotation Yrotation 
				JOINT Foot_R
				{
					OFFSET -40.9854 0.0 0.0
					CHANNELS 6 Xposition Yposition Zposition Zrotation Xrotation Yrotation 
					JOINT Toes_R
					{
						OFFSET -11.7543 0.0 0.0
						CHANNELS 6 Xposition Yposition Zposition Zrotation Xrotation Yrotation 
						End Site
						{
							OFFSET 0.0 0.0 0.0
						}
					}
				}
			}
		}
	}
}
MOTION
Frames:	9
Frame Time:	0.0333333
0.000000 0.000000 0.000000 0.000000 0.000000 -0.000000 -1.716740 90.598600 -4.128570 88.624700 -0.851803 13.989400 15.735700 0.000005 -0.000001 89.398400 76.498100 -89.466100 8.984550 -0.406207 -0.000000 19.236200 -0.284369 -0.087571 16.377300 -0.000001 -0.000001 6.133880 -3.781430 1.235420 6.456720 -0.000001 -0.000000 -6.809040 -3.681210 1.982380 12.994200 -0.242716 4.980390 -91.364800 7.482290 -79.632400 5.348090 -0.000007 -0.000001 -59.641900 32.100000 -25.455600 24.328600 0.000019 0.000005 11.731100 24.445400 -26.647300 22.291600 -0.000001 0.000005 9.131040 5.234720 1.833120 12.994500 -0.242716 -4.980390 88.961200 11.525000 -84.814200 -5.348130 -0.000001 -0.000004 -56.307400 36.017900 -22.537700 -24.328900 0.000322 -0.000009 2.954340 6.941180 -23.132100 -22.291500 -0.000108 -0.000004 18.839700 5.415990 -3.464490 -2.192480 -6.469440 -0.000000 -171.976000 -12.891000 -0.714486 39.081100 -0.000007 -0.000012 -0.183523 0.279290 33.309400 40.985400 -0.000006 -0.000013 -0.587394 5.465360 -68.017000 11.754300 -0.000000 0.000003 -0.000165 -0.001572 -16.637200 -2.192510 6.469440 -0.000001 173.608000 24.082800 -177.974000 -39.081100 -0.002282 -0.040193 -0.198980 0.324859 31.909300 -40.985400 0.000008 0.000006 4.403060 14.093600 -69.194800 -11.754300 -0.000006 -0.000006 -0.002848 -0.038876 -18.154100
0.000000 0.000000 0.000000 0.000000 0.000000 -0.000000 -1.729290 90.593000 -4.129330 88.621900 -0.877516 14.013800 15.735700 0.000005 -0.000001 89.441600 76.505500 -89.506000 8.984550 -0.406207 -0.000000 19.221700 -0.263974 -0.084394 16.377300 -0.000001 -0.000001 6.252130 -3.809070 1.216310 6.456720 -0.000001 -0.000000 -6.767990 -3.765150 2.143090 12.994200 -0.242716 4.980390 -91.355100 7.369080 -79.550300 5.348090 -0.000007 -0.000001 -59.698800 31.759600 -25.454100 24.328600 0.000019 0.000005 11.909400 23.870800 -27.527100 22.291600 -0.000001 0.000005 9.307170 5.241510 1.656060 12.994500 -0.242716 -4.980390 88.959900 11.493000 -84.793700 -5.348130 -0.000001 -0.000004 -56.407200 35.990300 -22.506000 -24.328900 0.000322 -0.000009 2.939060 6.914760 -23.103200 -22.291500 -0.000108 -0.000004 18.740600 5.419550 -3.584020 -2.192480 -6.469440 -0.000000 -171.978000 -12.856200 -0.709883 39.081100 -0.000007 -0.000012 -0.178148 0.270811 33.338500 40.985400 -0.000006 -0.000013 -0.600863 5.421510 -68.027100 11.754300 -0.000000 0.000003 -0.000153 -0.001477 -16.633700 -2.192510 6.469440 -0.000001 173.613000 24.077800 -177.966000 -39.081100 -0.002282 -0.040193 -0.198182 0.323229 31.937000 -40.985400 0.000008 0.000006 4.424560 14.113100 -69.210200 -11.754300 -0.000006 -0.000006 -0.002920 -0.039698 -18.187500
0.000000 0.000000 0.000000 0.000000 0.000000 -0.000000 -1.737510 90.593700 -4.137740 88.652100 -0.854934 14.070100 15.735700 0.000005 -0.000001 89.489500 76.508900 -89.549100 8.984550 -0.406207 -0.000000 19.215200 -0.241344 -0.078720 16.377300 -0.000001 -0.000001 6.382750 -3.848840 1.244670 6.456720 -0.000001 -0.000000 -6.750140 -3.840800 2.156690 12.994200 -0.242716 4.980390 -91.354700 7.332310 -79.502300 5.348090 -0.000007 -0.000001 -59.496500 31.346700 -25.567600 24.328600 0.000019 0.000005 12.491900 23.586600 -28.972200 22.291600 -0.000001 0.000005 9.350420 5.244590 1.575350 12.994500 -0.242716 -4.980390 88.956500 11.458500 -84.761200 -5.348130 -0.000001 -0.000004 -56.445200 36.063700 -22.457100 -24.328900 0.000322 -0.000009 2.886510 6.763570 -23.184700 -22.291500 -0.000108 -0.000004 18.833100 5.419590 -3.585100 -2.192480 -6.469440 -0.000000 -171.982000 -12.879200 -0.649672 39.081100 -0.000007 -0.000012 -0.179492 0.273098 33.315000 40.985400 -0.000006 -0.000013 -0.604863 5.435460 -68.002800 11.754300 -0.000000 0.000003 -0.000171 -0.001620 -16.638900 -2.192510 6.469440 -0.000001 173.566000 24.059200 -177.916000 -39.081100 -0.002282 -0.040193 -0.201080 0.327721 31.949300 -40.985400 0.000008 0.000006 4.425170 14.090900 -69.214400 -11.754300 -0.000006 -0.000006 -0.002647 -0.036541 -18.059100
0.000000 0.000000 0.000000 0.000000 0.000000 -0.000000 -1.767730 90.584700 -4.142610 88.637600 -0.813468 14.096100 15.735700 0.000005 -0.000001 89.502000 76.519100 -89.541900 8.984550 -0.406207 -0.000000 19.194700 -0.233442 -0.040488 16.377300 -0.000001 -0.000001 6.475790 -3.855750 1.271360 6.456720 -0.000001 -0.000000 -6.760650 -3.857160 2.121000 12.994200 -0.242716 4.980390 -91.353400 7.275700 -79.433100 5.348090 -0.000007 -0.000001 -59.078000 30.946500 -25.926500 24.328600 0.000019 0.000005 12.929200 22.880500 -30.559000 22.291600 -0.000001 0.000005 9.592740 5.246830 1.516530 12.994500 -0.242716 -4.980390 88.961200 11.408200 -84.762000 -5.348130 -0.000001 -0.000004 -56.510600 36.060600 -22.444400 -24.328900 0.000322 -0.000009 2.911240 6.818960 -23.193500 -22.291500 -0.000108 -0.000004 18.828700 5.418500 -3.548640 -2.192480 -6.469440 -0.000000 -171.963000 -12.837700 -0.655677 39.081100 -0.000007 -0.000012 -0.172377 0.261778 33.364600 40.985400 -0.000006 -0.000013 -0.611615 5.448060 -68.023200 11.754300 -0.000000 0.000003 -0.000176 -0.001660 -16.640400 -2.192510 6.469440 -0.000001 173.578000 24.109900 -177.899000 -39.081100 -0.002282 -0.040193 -0.197376 0.321319 31.986400 -40.985400 0.000008 0.000006 4.450130 14.079500 -69.243200 -11.754300 -0.000006 -0.000006 -0.002996 -0.040557 -18.222500
0.000000 0.000000 0.000000 0.000000 0.000000 -0.000000 -1.780150 90.587300 -4.172280 88.682600 -0.775079 14.101400 15.735700 0.000005 -0.000001 89.498900 76.537200 -89.537800 8.984550 -0.406207 -0.000000 19.158500 -0.234490 -0.038465 16.377300 -0.000001 -0.000001 6.546840 -3.839790 1.281490 6.456720 -0.000001 -0.000000 -6.806510 -3.846380 2.104590 12.994200 -0.242716 4.980390 -91.347100 7.206670 -79.383300 5.348090 -0.000007 -0.000001 -58.706300 30.252500 -26.317500 24.328600 0.000019 0.000005 13.534900 22.250400 -32.445300 22.291600 -0.000001 0.000005 9.727030 5.253110 1.350520 12.994500 -0.242716 -4.980390 88.968500 11.347900 -84.771700 -5.348130 -0.000001 -0.000004 -56.526700 36.090500 -22.459800 -24.328900 0.000322 -0.000009 2.958690 6.922580 -23.218100 -22.291500 -0.000108 -0.000004 18.750800 5.416970 -3.497110 -2.192480 -6.469440 -0.000000 -171.997000 -12.825200 -0.658856 39.081100 -0.000007 -0.000012 -0.180960 0.275223 33.325300 40.985400 -0.000006 -0.000013 -0.623073 5.455160 -67.975500 11.754300 -0.000000 0.000003 -0.000175 -0.001655 -16.640200 -2.192510 6.469440 -0.000001 173.563000 24.088900 -177.928000 -39.081100 -0.002282 -0.040193 -0.194846 0.317033 32.005400 -40.985400 0.000008 0.000006 4.446220 14.004500 -69.234900 -11.754300 -0.000006 -0.000006 -0.002830 -0.038662 -18.145400
0.000000 0.000000 0.000000 0.000000 0.000000 -0.000000 -1.804110 90.580800 -4.198410 88.680300 -0.686262 14.091700 15.735700 0.000005 -0.000001 89.494200 76.559600 -89.524000 8.984550 -0.406207 -0.000000 19.113800 -0.235349 -0.020081 16.377300 -0.000001 -0.000001 6.546850 -3.826730 1.229090 6.456720 -0.000001 -0.000000 -6.838880 -3.872310 2.192430 12.994200 -0.242716 4.980390 -91.335200 7.124870 -79.357600 5.348090 -0.000007 -0.000001 -58.288900 29.430100 -26.770700 24.328600 0.000019 0.000005 14.081900 21.334200 -34.586400 22.291600 -0.000001 0.000005 9.969740 5.257290 1.239440 12.994500 -0.242716 -4.980390 88.968400 11.337900 -84.766700 -5.348130 -0.000001 -0.000004 -56.546000 36.035800 -22.434600 -24.328900 0.000322 -0.000009 2.870350 6.688480 -23.298800 -22.291500 -0.000108 -0.000004 18.657100 5.415000 -3.431280 -2.192480 -6.469440 -0.000000 -171.996000 -12.788400 -0.723673 39.081100 -0.000007 -0.000012 -0.181094 0.275066 33.359800 40.985400 -0.000006 -0.000013 -0.616344 5.520910 -67.961400 11.754300 -0.000000 0.000003 -0.000170 -0.001614 -16.638700 -2.192510 6.469440 -0.000001 173.581000 24.139000 -177.968000 -39.081100 -0.002282 -0.040193 -0.194552 0.316103 32.042800 -40.985400 0.000008 0.000006 4.460590 13.965500 -69.246000 -11.754300 -0.000006 -0.000006 -0.002881 -0.039253 -18.169400
0.000000 0.000000 0.000000 0.000000 0.000000 -0.000000 -1.826650 90.586200 -4.234070 88.691100 -0.624259 14.122300 15.735700 0.000005 -0.000001 89.511400 76.575100 -89.526400 8.984550 -0.406207 -0.000000 19.082800 -0.225733 0.007869 16.377300 -0.000001 -0.000001 6.631540 -3.826730 1.252220 6.456720 -0.000001 -0.000000 -7.038020 -3.873390 2.149550 12.994200 -0.242716 4.980390 -91.331800 7.092220 -79.336600 5.348090 -0.000007 -0.000001 -57.795600 28.498900 -27.355400 24.328600 0.000019 0.000005 14.722900 20.550600 -36.817200 22.291600 -0.000001 0.000005 10.344900 5.256790 1.252660 12.994500 -0.242716 -4.980390 88.975000 11.290700 -84.778400 -5.348130 -0.000001 -0.000004 -56.602800 35.984600 -22.384600 -24.328900 0.000322 -0.000009 2.930090 6.810020 -23.355100 -22.291500 -0.000108 -0.000004 18.717800 5.416860 -3.493620 -2.192480 -6.469440 -0.000000 -171.999000 -12.766500 -0.720208 39.081100 -0.000007 -0.000012 -0.179398 0.272815 33.328500 40.985400 -0.000006 -0.000013 -0.621915 5.542320 -67.905400 11.754300 -0.000000 0.000003 -0.000175 -0.001653 -16.640100 -2.192510 6.469440 -0.000001 173.559000 24.198600 -177.934000 -39.081100 -0.002282 -0.040193 -0.195416 0.317710 32.024500 -40.985400 0.000008 0.000006 4.473530 13.955900 -69.227800 -11.754300 -0.000006 -0.000006 -0.002862 -0.039026 -18.160200
0.000000 0.000000 0.000000 0.000000 0.000000 -0.000000 -1.841790 90.580100 -4.264860 88.689300 -0.553761 14.076300 15.735700 0.000005 -0.000001 89.535900 76.611000 -89.539100 8.984550 -0.406207 -0.000000 19.011200 -0.212818 0.029141 16.377300 -0.000001 -0.000001 6.593750 -3.812990 1.223780 6.456720 -0.000001 -0.000000 -7.074170 -3.893280 2.170060 12.994200 -0.242716 4.980390 -91.316600 7.011100 -79.336600 5.348090 -0.000007 -0.000001 -57.284400 27.503000 -28.113100 24.328600 0.000019 0.000005 15.541900 20.029100 -39.077000 22.291600 -0.000001 0.000005 10.626400 5.258970 1.194390 12.994500 -0.242716 -4.980390 88.985700 11.224700 -84.803100 -5.348130 -0.000001 -0.000004 -56.613300 35.947700 -22.404800 -24.328900 0.000322 -0.000009 2.948520 6.845670 -23.377700 -22.291500 -0.000108 -0.000004 18.636700 5.417420 -3.512300 -2.192480 -6.469440 -0.000000 -172.034000 -12.681600 -0.830035 39.081100 -0.000007 -0.000012 -0.175529 0.266548 33.366200 40.985400 -0.000006 -0.000013 -0.622421 5.550130 -67.892600 11.754300 -0.000000 0.000003 -0.000164 -0.001562 -16.636800 -2.192510 6.469440 -0.000001 173.593000 24.233900 -178.027000 -39.081100 -0.002282 -0.040193 -0.199213 0.323278 32.064500 -40.985400 0.000008 0.000006 4.483010 13.921700 -69.227700 -11.754300 -0.000006 -0.000006 -0.003022 -0.040851 -18.234400
0.000000 0.000000 0.000000 0.000000 0.000000 -0.000000 -1.861290 90.588000 -4.294960 88.710100 -0.529993 14.097200 15.735700 0.000005 -0.000001 89.595400 76.636800 -89.602900 8.984550 -0.406207 -0.000000 18.959700 -0.185606 0.016036 16.377300 -0.000001 -0.000001 6.667050 -3.813970 1.210250 6.456720 -0.000001 -0.000000 -7.206070 -3.891300 2.213260 12.994200 -0.242716 4.980390 -91.300800 6.913000 -79.316600 5.348090 -0.000007 -0.000001 -56.766300 26.409800 -28.911800 24.328600 0.000019 0.000005 16.541700 19.649900 -41.451700 22.291600 -0.000001 0.000005 10.905900 5.256810 1.251950 12.994500 -0.242716 -4.980390 88.990700 11.183900 -84.809900 -5.348130 -0.000001 -0.000004 -56.575100 35.980400 -22.412600 -24.328900 0.000322 -0.000009 2.968960 6.863680 -23.467600 -22.291500 -0.000108 -0.000004 18.665800 5.418290 -3.541480 -2.192480 -6.469440 -0.000000 -172.030000 -12.705500 -0.806595 39.081100 -0.000007 -0.000012 -0.177692 0.270378 33.313100 40.985400 -0.000006 -0.000013 -0.628866 5.586270 -67.837400 11.754300 -0.000000 0.000003 -0.000168 -0.001602 -16.638300 -2.192510 6.469440 -0.000001 173.583000 24.257500 -178.005000 -39.081100 -0.002282 -0.040193 -0.194332 0.315790 32.039700 -40.985400 0.000008 0.000006 4.496930 13.909700 -69.208300 -11.754300 -0.000006 -0.000006 -0.002879 -0.039231 -18.168500
